<svg xmlns="http://www.w3.org/2000/svg" viewBox="0 0 254.87 48.38" xmlns:c2pa="http://c2pa.org/manifest"><metadata><c2pa:manifest>AAAWgmp1bWIAAAAeanVtZGMycGEAEQAQgAAAqgA4m3EDYzJwYQAAABZcanVtYgAAAEdqdW1kYzJtYQARABCAAACqADibcQN1cm46YzJwYTphY2Y5NjYwMC1mODdhLTQxZGQtOWJjZC05Mjc3MDY2Zjg1MDcAAAADl2p1bWIAAAApanVtZGMyYXMAEQAQgAAAqgA4m3EDYzJwYS5hc3NlcnRpb25zAAAAALxqdW1iAAAARGp1bWRjYm9yABEAEIAAAKoAOJtxE2MycGEuaW5ncmVkaWVudC52MwAAAAAYYzJzaAAddnh/PCVCdW04m2w/+5YAAABwY2JvcqNpZGM6Zm9ybWF0bWltYWdlL3N2Zyt4bWxqaW5zdGFuY2VJRHgseG1wOmlpZDo0ZjVmMjA3Zi02ZWZiLTRmMGYtYWUyOC05MTRmODkxMTBmNzZscmVsYXRpb25zaGlwaHBhcmVudE9mAAAB4mp1bWIAAABBanVtZGNib3IAEQAQgAAAqgA4m3ETYzJwYS5hY3Rpb25zLnYyAAAAABhjMnNosEMQx2jj1k7+3MmxX9UR3wAAAZljYm9yomdhY3Rpb25zgqJmYWN0aW9ua2MycGEub3BlbmVkanBhcmFtZXRlcnOha2luZ3JlZGllbnRzgaJjdXJseC1zZWxmI2p1bWJmPWMycGEuYXNzZXJ0aW9ucy9jMnBhLmluZ3JlZGllbnQudjNkaGFzaFgg1lw+lr6fR1i5gfh4oXDbmSnO0lvMbKD5+gMpVq4SSqWkZmFjdGlvbngdY29tLmFudGhyb3BpYy5jbGF1ZGUucHJvdmlkZWRqcGFyYW1ldGVyc6F4H2NvbS5hbnRocm9waWMub3JpZ2luLWNvbmZpZGVuY2VndW5rbm93bmtkZXNjcmlwdGlvbnhmQ2xhdWRlIHByb3ZpZGVkIHRoaXMgZmlsZSBhdCB0aGUgcmVxdWVzdCBvZiBhIHVzZXIgYW5kIG1heSBoYXZlIGNyZWF0ZWQgb3IgbW9kaWZpZWQgdGhlIGZpbGUgY29udGVudHMubXNvZnR3YXJlQWdlbnShZG5hbWVmQ2xhdWRlcmFsbEFjdGlvbnNJbmNsdWRlZPUAAADIanVtYgAAAEBqdW1kY2JvcgARABCAAACqADibcRNjMnBhLmhhc2guZGF0YQAAAAAYYzJzaNeq1505vvUTQe/6+Js9o+cAAACAY2JvcqVjYWxnZnNoYTI1NmNwYWRNAAAAAAAAAAAAAAAAAGRoYXNoWCBXhefLnNQGcKQlTYoD/DAoUaa+9Y8AU5qxNuiFf14xr2RuYW1lbmp1bWJmIG1hbmlmZXN0amV4Y2x1c2lvbnOBomVzdGFydBiCZmxlbmd0aBkeBAAAAj5qdW1iAAAAJ2p1bWRjMmNsABEAEIAAAKoAOJtxA2MycGEuY2xhaW0udjIAAAACD2Nib3KlY2FsZ2ZzaGEyNTZpc2lnbmF0dXJleE1zZWxmI2p1bWJmPS9jMnBhL3VybjpjMnBhOmFjZjk2NjAwLWY4N2EtNDFkZC05YmNkLTkyNzcwNjZmODUwNy9jMnBhLnNpZ25hdHVyZWppbnN0YW5jZUlEeCx4bXA6aWlkOmNlNDZiYTgwLTk2ZjItNDc0My1iOGZjLWM4OTgzNDkzZjFmYnJjcmVhdGVkX2Fzc2VydGlvbnODomN1cmx4LXNlbGYjanVtYmY9YzJwYS5hc3NlcnRpb25zL2MycGEuaW5ncmVkaWVudC52M2RoYXNoWCDWXD6Wvp9HWLmB+HihcNuZKc7SW8xsoPn6AylWrhJKpaJjdXJseCpzZWxmI2p1bWJmPWMycGEuYXNzZXJ0aW9ucy9jMnBhLmFjdGlvbnMudjJkaGFzaFggt9mzzFck8vBYIzdi0ZYsf8uOmHSgfzZ2GNMEmOsXSKCiY3VybHgpc2VsZiNqdW1iZj1jMnBhLmFzc2VydGlvbnMvYzJwYS5oYXNoLmRhdGFkaGFzaFggi+LPxmRpb2AicPMdAEZAopcTTHELA2p+h3gIO8XYv0x0Y2xhaW1fZ2VuZXJhdG9yX2luZm+jZG5hbWVvQW50aHJvcGljIEZpbGVzZ3ZlcnNpb25lMS4wLjBrc3BlY1ZlcnNpb25lMi40LjAAABA4anVtYgAAAChqdW1kYzJjcwARABCAAACqADibcQNjMnBhLnNpZ25hdHVyZQAAABAIY2JvctKEWQISogEmGCFZAgowggIGMIIBjaADAgECAhRA5aAK7sI50L64g/oGQgU9Z1UTADAKBggqhkjOPQQDAzBJMRcwFQYDVQQKEw5BbnRocm9waWMsIFBCQzEuMCwGA1UEAxMlQW50aHJvcGljIENvbnRlbnQgQ3JlZGVudGlhbHMgUm9vdCBDQTAeFw0yNjA4MDcxODQzNTZaFw0yODA4MDYxOTQzNTZaMEQxFzAVBgNVBAoTDkFudGhyb3BpYywgUEJDMSkwJwYDVQQDEyBBbnRocm9waWMgQ2xhdWRlIENvbnRlbnQgU2lnbmluZzBZMBMGByqGSM49AgEGCCqGSM49AwEHA0IABJh6CmvLUBgFFNU0vUKlOVtE6djd17L5SuwX0LemFisBM3dkd/3cyjxFA3Qo5S46fX0/ihY0VZ7mfb9KF703t5OjWDBWMA4GA1UdDwEB/wQEAwIHgDAVBgNVHSUEDjAMBgorBgEEAYPoXgIBMAwGA1UdEwEB/wQCMAAwHwYDVR0jBBgwFoAUzlHiBIFOZFsj+OPEz5o+nMHXXMIwCgYIKoZIzj0EAwMDZwAwZAIwMXMdFJ4BetLLVY7ORuE9noqbbAZOZn/aArXyTwFAZfKrPzxF2vPoJNf1+UCdg1XGAjBwX1zd9WGqYkqmL5SFqw1QySjr1zJfpJM9+1rdDwSPLMOPOjKuiXjoU/pUUeG9RwmhY3BhZFkNngAAAAAAAAAAAAAAAAAAAAAAAAAAAAAAAAAAAAAAAAAAAAAAAAAAAAAAAAAAAAAAAAAAAAAAAAAAAAAAAAAAAAAAAAAAAAAAAAAAAAAAAAAAAAAAAAAAAAAAAAAAAAAAAAAAAAAAAAAAAAAAAAAAAAAAAAAAAAAAAAAAAAAAAAAAAAAAAAAAAAAAAAAAAAAAAAAAAAAAAAAAAAAAAAAAAAAAAAAAAAAAAAAAAAAAAAAAAAAAAAAAAAAAAAAAAAAAAAAAAAAAAAAAAAAAAAAAAAAAAAAAAAAAAAAAAAAAAAAAAAAAAAAAAAAAAAAAAAAAAAAAAAAAAAAAAAAAAAAAAAAAAAAAAAAAAAAAAAAAAAAAAAAAAAAAAAAAAAAAAAAAAAAAAAAAAAAAAAAAAAAAAAAAAAAAAAAAAAAAAAAAAAAAAAAAAAAAAAAAAAAAAAAAAAAAAAAAAAAAAAAAAAAAAAAAAAAAAAAAAAAAAAAAAAAAAAAAAAAAAAAAAAAAAAAAAAAAAAAAAAAAAAAAAAAAAAAAAAAAAAAAAAAAAAAAAAAAAAAAAAAAAAAAAAAAAAAAAAAAAAAAAAAAAAAAAAAAAAAAAAAAAAAAAAAAAAAAAAAAAAAAAAAAAAAAAAAAAAAAAAAAAAAAAAAAAAAAAAAAAAAAAAAAAAAAAAAAAAAAAAAAAAAAAAAAAAAAAAAAAAAAAAAAAAAAAAAAAAAAAAAAAAAAAAAAAAAAAAAAAAAAAAAAAAAAAAAAAAAAAAAAAAAAAAAAAAAAAAAAAAAAAAAAAAAAAAAAAAAAAAAAAAAAAAAAAAAAAAAAAAAAAAAAAAAAAAAAAAAAAAAAAAAAAAAAAAAAAAAAAAAAAAAAAAAAAAAAAAAAAAAAAAAAAAAAAAAAAAAAAAAAAAAAAAAAAAAAAAAAAAAAAAAAAAAAAAAAAAAAAAAAAAAAAAAAAAAAAAAAAAAAAAAAAAAAAAAAAAAAAAAAAAAAAAAAAAAAAAAAAAAAAAAAAAAAAAAAAAAAAAAAAAAAAAAAAAAAAAAAAAAAAAAAAAAAAAAAAAAAAAAAAAAAAAAAAAAAAAAAAAAAAAAAAAAAAAAAAAAAAAAAAAAAAAAAAAAAAAAAAAAAAAAAAAAAAAAAAAAAAAAAAAAAAAAAAAAAAAAAAAAAAAAAAAAAAAAAAAAAAAAAAAAAAAAAAAAAAAAAAAAAAAAAAAAAAAAAAAAAAAAAAAAAAAAAAAAAAAAAAAAAAAAAAAAAAAAAAAAAAAAAAAAAAAAAAAAAAAAAAAAAAAAAAAAAAAAAAAAAAAAAAAAAAAAAAAAAAAAAAAAAAAAAAAAAAAAAAAAAAAAAAAAAAAAAAAAAAAAAAAAAAAAAAAAAAAAAAAAAAAAAAAAAAAAAAAAAAAAAAAAAAAAAAAAAAAAAAAAAAAAAAAAAAAAAAAAAAAAAAAAAAAAAAAAAAAAAAAAAAAAAAAAAAAAAAAAAAAAAAAAAAAAAAAAAAAAAAAAAAAAAAAAAAAAAAAAAAAAAAAAAAAAAAAAAAAAAAAAAAAAAAAAAAAAAAAAAAAAAAAAAAAAAAAAAAAAAAAAAAAAAAAAAAAAAAAAAAAAAAAAAAAAAAAAAAAAAAAAAAAAAAAAAAAAAAAAAAAAAAAAAAAAAAAAAAAAAAAAAAAAAAAAAAAAAAAAAAAAAAAAAAAAAAAAAAAAAAAAAAAAAAAAAAAAAAAAAAAAAAAAAAAAAAAAAAAAAAAAAAAAAAAAAAAAAAAAAAAAAAAAAAAAAAAAAAAAAAAAAAAAAAAAAAAAAAAAAAAAAAAAAAAAAAAAAAAAAAAAAAAAAAAAAAAAAAAAAAAAAAAAAAAAAAAAAAAAAAAAAAAAAAAAAAAAAAAAAAAAAAAAAAAAAAAAAAAAAAAAAAAAAAAAAAAAAAAAAAAAAAAAAAAAAAAAAAAAAAAAAAAAAAAAAAAAAAAAAAAAAAAAAAAAAAAAAAAAAAAAAAAAAAAAAAAAAAAAAAAAAAAAAAAAAAAAAAAAAAAAAAAAAAAAAAAAAAAAAAAAAAAAAAAAAAAAAAAAAAAAAAAAAAAAAAAAAAAAAAAAAAAAAAAAAAAAAAAAAAAAAAAAAAAAAAAAAAAAAAAAAAAAAAAAAAAAAAAAAAAAAAAAAAAAAAAAAAAAAAAAAAAAAAAAAAAAAAAAAAAAAAAAAAAAAAAAAAAAAAAAAAAAAAAAAAAAAAAAAAAAAAAAAAAAAAAAAAAAAAAAAAAAAAAAAAAAAAAAAAAAAAAAAAAAAAAAAAAAAAAAAAAAAAAAAAAAAAAAAAAAAAAAAAAAAAAAAAAAAAAAAAAAAAAAAAAAAAAAAAAAAAAAAAAAAAAAAAAAAAAAAAAAAAAAAAAAAAAAAAAAAAAAAAAAAAAAAAAAAAAAAAAAAAAAAAAAAAAAAAAAAAAAAAAAAAAAAAAAAAAAAAAAAAAAAAAAAAAAAAAAAAAAAAAAAAAAAAAAAAAAAAAAAAAAAAAAAAAAAAAAAAAAAAAAAAAAAAAAAAAAAAAAAAAAAAAAAAAAAAAAAAAAAAAAAAAAAAAAAAAAAAAAAAAAAAAAAAAAAAAAAAAAAAAAAAAAAAAAAAAAAAAAAAAAAAAAAAAAAAAAAAAAAAAAAAAAAAAAAAAAAAAAAAAAAAAAAAAAAAAAAAAAAAAAAAAAAAAAAAAAAAAAAAAAAAAAAAAAAAAAAAAAAAAAAAAAAAAAAAAAAAAAAAAAAAAAAAAAAAAAAAAAAAAAAAAAAAAAAAAAAAAAAAAAAAAAAAAAAAAAAAAAAAAAAAAAAAAAAAAAAAAAAAAAAAAAAAAAAAAAAAAAAAAAAAAAAAAAAAAAAAAAAAAAAAAAAAAAAAAAAAAAAAAAAAAAAAAAAAAAAAAAAAAAAAAAAAAAAAAAAAAAAAAAAAAAAAAAAAAAAAAAAAAAAAAAAAAAAAAAAAAAAAAAAAAAAAAAAAAAAAAAAAAAAAAAAAAAAAAAAAAAAAAAAAAAAAAAAAAAAAAAAAAAAAAAAAAAAAAAAAAAAAAAAAAAAAAAAAAAAAAAAAAAAAAAAAAAAAAAAAAAAAAAAAAAAAAAAAAAAAAAAAAAAAAAAAAAAAAAAAAAAAAAAAAAAAAAAAAAAAAAAAAAAAAAAAAAAAAAAAAAAAAAAAAAAAAAAAAAAAAAAAAAAAAAAAAAAAAAAAAAAAAAAAAAAAAAAAAAAAAAAAAAAAAAAAAAAAAAAAAAAAAAAAAAAAAAAAAAAAAAAAAAAAAAAAAAAAAAAAAAAAAAAAAAAAAAAAAAAAAAAAAAAAAAAAAAAAAAAAAAAAAAAAAAAAAAAAAAAAAAAAAAAAAAAAAAAAAAAAAAAAAAAAAAAAAAAAAAAAAAAAAAAAAAAAAAAAAAAAAAAAAAAAAAAAAAAAAAAAAAAAAAAAAAAAAAAAAAAAAAAAAAAAAAAAAAAAAAAAAAAAAAAAAAAAAAAAAAAAAAAAAAAAAAAAAAAAAAAAAAAAAAAAAAAAAAAAAAAAAAAAAAAAAAAAAAAAAAAAAAAAAAAAAAAAAAAAAAAAAAAAAAAAAAAAAAAAAAAAAAAAAAAAAAAAAAAAAAAAAAAAAAAAAAAAAAAAAAAAAAAAAAAAAAAAAAAAAAAAAAAAAAAAAAAAAAAAAAAAAAAAAAAAAAAAAAAAAAAAAAAAAAAAAAAAAAAAAAAAAAAAAAAAAAAAAAAAAAAAAAAAAAAAAAAAAAAAAAAAAAAAAAAAAAAAAAAAAAAAAAAAAAAAAAAAAAAAAAAAAAAAAAAAAAAAAAAAAAAAAAAAAAAAAAAAAAAAAAAAAAAAAAAAAAAAAAAAAAAAAAAAAAAAAAAAAAAAAAAAAAAAAAAAAAAAAAAAAAAAAAAAAAAAAAAAAAAAAAAAAAAAAAAAAAAAAAAAAAAAAAAAAAAAAAAAAAAAAAAAAAAAAAAAAAAAAAAAAAAAAAAAAAAAAAAAAAAAAAAAAAAAAAAAAAAAAAAAAAAAAAAAAAAAAAAAAAAAAAAAAAAAAAAAAAAAAAAAAAAAAAAAAAAAAAAAAAAAAAAAAAAAAAAAAAAAAAAAAAAAAAAAAAAAAAAAAAAAAAAAAAAAAAAAAAAAAAAAAAAAAAAAAAAAAAAAAAAAAAAAAAAAAAAAAAAAAAAAAAAAAAAAAAAAAAAAAAAAAAAAAAAAAAAAAAAAAAAAAAAAAAAAAAAAAAAAAAAAAAAAAAAAAAAAAAAAAAAAAAAAAAAAAAAAAAAAAAAAAAAAAAAAAAAAAAAAAAAAAAAAAAAAAAAAAAAAAAAAAAAAAAAAAAAAAAAAAAAAAAAAAAAAAAAAAAAAAAAAAAAAAAAAAAAAAAAAAAAAAAAAAAAAAAAAAAAAAAAAAAAAAAAAAAAAAAAAAAAAAAAAAAAAAAAAAAAAAAAAAAAAAAAAAAAAAAAAAAAAAAAAAAAAAAAAAAAAAAAAAAAAAAAAAAAAAAAAAAAAAAAAAAAAAAAAAAAAAAAAAAAAAAAAAAAAAAAAAAAAAAAAAAAAAAAAAAAAAAAAAAAAAAAAAAAAAAAAAAAAAAAAAAAAAAAAAAAAAAAAAAAAAAAAAAAAAAAAAAAAAAAAAAAAAAAAAAAAAAAAAAAAAAAAAAAAAAAAAAAAAAAAAAAAAAAAAAAAAAAAAAAAAAAAAAAAPZYQGY3O9knlycH5xbZPkWgSCrdq8Gq2Lo/hGeZ3yWa4CINnAepZZ0FrUFfRq4ib5N46SxEx5VAXefSAtL3nKKjj94=</c2pa:manifest></metadata><path fill="#000000" d="M0 38.85L0 38.85L0 4.28L6.6 4.28L21.3 28.65L17.78 28.65L32.25 4.28L38.78 4.28L38.85 38.85L31.35 38.85L31.35 15.75L32.7 15.75L21.15 35.18L17.55 35.18L5.78 15.75L7.43 15.75L7.43 38.85L0 38.85Z"></path><path fill="#000000" d="M46.5 12.3L46.5 12.3L54.23 12.3L54.23 38.85L46.5 38.85L46.5 12.3ZM50.4 8.55L50.4 8.55C48.98 8.55 47.78 8.18 46.95 7.35C46.05 6.53 45.6 5.48 45.6 4.28C45.6 3.08 46.05 2.03 46.95 1.2C47.78 0.45 48.98 0 50.4 0C51.75 0 52.95 0.38 53.85 1.13C54.68 1.95 55.13 2.93 55.13 4.13C55.13 5.4 54.75 6.53 53.85 7.35C52.95 8.18 51.83 8.55 50.4 8.55Z"></path><path fill="#000000" d="M61.35 2.25L61.35 2.25L69.08 2.25L69.08 38.85L61.35 38.85L61.35 2.25Z"></path><path fill="#000000" d="M76.2 2.25L76.2 2.25L83.93 2.25L83.93 38.85L76.2 38.85L76.2 2.25Z"></path><path fill="#000000" d="M91.06 12.3L91.06 12.3L98.78 12.3L98.78 38.85L91.06 38.85L91.06 12.3ZM94.88 8.55L94.88 8.55C93.53 8.55 92.33 8.18 91.43 7.35C90.61 6.53 90.16 5.48 90.16 4.28C90.16 3.08 90.61 2.03 91.43 1.2C92.33 0.45 93.53 0 94.88 0C96.31 0 97.51 0.38 98.33 1.13C99.23 1.95 99.68 2.93 99.68 4.13C99.68 5.4 99.23 6.53 98.41 7.35C97.51 8.18 96.38 8.55 94.88 8.55Z"></path><path fill="#000000" d="M135.83 34.73L135.83 34.73L132.31 34.28L132.31 21.53L135.83 21.53L135.83 34.73ZM123.16 39.15L123.16 39.15C120.53 39.15 118.06 38.7 115.88 37.8C113.63 36.9 111.68 35.7 110.11 34.13C108.46 32.55 107.18 30.68 106.28 28.58C105.38 26.4 104.93 24.08 104.93 21.53C104.93 19.05 105.38 16.73 106.28 14.55C107.18 12.45 108.46 10.58 110.11 9C111.76 7.43 113.71 6.15 115.88 5.33C118.13 4.43 120.53 3.98 123.16 3.98C125.78 3.98 128.18 4.43 130.43 5.25C132.61 6.08 134.48 7.28 135.98 9L133.73 11.33C132.31 9.83 130.66 8.85 128.93 8.18C127.21 7.58 125.33 7.28 123.31 7.28C121.21 7.28 119.26 7.58 117.46 8.33C115.66 9 114.08 10.05 112.73 11.33C111.38 12.6 110.41 14.1 109.66 15.83C108.91 17.55 108.53 19.5 108.53 21.53C108.53 23.63 108.91 25.5 109.66 27.23C110.41 28.95 111.38 30.53 112.73 31.8C114.08 33.08 115.66 34.13 117.46 34.8C119.26 35.48 121.21 35.85 123.31 35.85C125.26 35.85 127.13 35.55 128.86 34.95C130.66 34.35 132.23 33.38 133.73 31.95L135.83 34.73C134.18 36.15 132.23 37.28 130.06 38.03C127.81 38.78 125.56 39.15 123.16 39.15Z"></path><path fill="#000000" d="M145.36 38.85L145.36 38.85L145.36 12.9L148.73 12.9L148.73 19.95L148.36 18.75C149.11 16.8 150.31 15.3 152.03 14.25C153.76 13.2 155.86 12.68 158.41 12.68L158.41 16.05C158.26 16.05 158.11 16.05 158.04 16.05C157.89 16.05 157.74 16.05 157.59 16.05C154.88 16.05 152.71 16.88 151.21 18.53C149.63 20.18 148.88 22.58 148.88 25.58L148.88 38.85L145.36 38.85Z"></path><path fill="#000000" d="M175.06 35.93L175.06 35.93C176.94 35.93 178.59 35.55 180.09 34.73C181.51 33.83 182.64 32.7 183.46 31.13C184.29 29.63 184.74 27.83 184.74 25.88C184.74 23.78 184.29 22.05 183.46 20.55C182.64 18.98 181.51 17.85 180.09 17.03C178.59 16.13 176.94 15.75 175.14 15.75C173.26 15.75 171.61 16.13 170.19 17.03C168.76 17.85 167.56 18.98 166.74 20.55C165.91 22.05 165.46 23.78 165.46 25.88C165.46 27.83 165.91 29.63 166.74 31.13C167.56 32.7 168.76 33.83 170.19 34.73C171.61 35.55 173.26 35.93 175.06 35.93ZM175.06 39.08L175.06 39.08C172.59 39.08 170.34 38.48 168.31 37.35C166.36 36.23 164.79 34.65 163.66 32.7C162.46 30.68 161.94 28.43 161.94 25.88C161.94 23.25 162.46 21 163.66 18.98C164.79 17.03 166.36 15.45 168.31 14.33C170.26 13.2 172.51 12.68 175.06 12.68C177.61 12.68 179.94 13.2 181.89 14.33C183.91 15.45 185.49 17.03 186.61 18.98C187.74 21 188.26 23.25 188.26 25.88C188.26 28.43 187.74 30.68 186.61 32.7C185.49 34.65 183.91 36.23 181.89 37.35C179.86 38.48 177.61 39.08 175.06 39.08Z"></path><path fill="#000000" d="M206.11 39.08L206.11 39.08C203.94 39.08 201.99 38.63 200.34 37.8C198.76 36.98 197.49 35.78 196.59 34.13C195.61 32.48 195.16 30.45 195.16 27.98L195.16 12.9L198.69 12.9L198.69 27.6C198.69 30.3 199.36 32.4 200.71 33.83C202.14 35.18 204.01 35.93 206.49 35.93C208.29 35.93 209.86 35.55 211.21 34.8C212.56 34.05 213.54 33 214.29 31.58C214.96 30.15 215.34 28.43 215.34 26.48L215.34 12.9L218.79 12.9L218.79 38.85L215.49 38.85L215.49 31.73L216.01 33C215.19 34.88 213.91 36.38 212.19 37.43C210.46 38.55 208.44 39.08 206.11 39.08Z"></path><path fill="#000000" d="M241.74 35.93L241.74 35.93C243.54 35.93 245.19 35.55 246.62 34.73C248.12 33.83 249.24 32.7 250.07 31.13C250.97 29.63 251.34 27.83 251.34 25.88C251.34 23.85 250.97 22.05 250.07 20.55C249.24 19.05 248.12 17.85 246.62 17.03C245.19 16.2 243.54 15.75 241.74 15.75C239.87 15.75 238.22 16.2 236.72 17.03C235.29 17.85 234.16 19.05 233.26 20.55C232.44 22.05 232.06 23.85 232.06 25.88C232.06 27.83 232.44 29.63 233.26 31.13C234.16 32.7 235.29 33.83 236.72 34.73C238.22 35.55 239.87 35.93 241.74 35.93ZM241.97 39.08L241.97 39.08C239.72 39.08 237.69 38.55 235.89 37.5C234.09 36.45 232.66 34.95 231.54 33C230.49 31.05 229.96 28.65 229.96 25.88C229.96 23.03 230.49 20.63 231.54 18.68C232.59 16.73 234.01 15.23 235.82 14.18C237.62 13.2 239.72 12.68 241.97 12.68C244.44 12.68 246.62 13.2 248.57 14.33C250.52 15.45 252.09 16.95 253.22 18.98C254.34 20.93 254.87 23.25 254.87 25.88C254.87 28.5 254.34 30.75 253.22 32.78C252.09 34.73 250.52 36.3 248.57 37.43C246.62 38.48 244.44 39.08 241.97 39.08ZM228.61 48.38L228.61 48.38L228.61 12.9L231.91 12.9L231.91 20.7L231.61 25.88L232.06 31.13L232.06 48.38L228.61 48.38Z"></path></svg>